<svg width="100" height="88" viewBox="0 0 100 88" fill="none" xmlns="http://www.w3.org/2000/svg">
<path d="M93.1406 10.4063H47.1562C45.2812 10.4063 43.4844 9.64064 42.1875 8.28127L36.3125 2.12502C35.6711 1.45318 34.9 0.918464 34.0459 0.553212C33.1919 0.187959 32.2726 -0.00023473 31.3438 1.78384e-05H6.85938C5.95933 -0.00203707 5.06771 0.173465 4.23559 0.516476C3.40346 0.859486 2.64717 1.36327 2.01001 1.99897C1.37285 2.63468 0.867347 3.38982 0.52244 4.22116C0.177533 5.05251 -2.34577e-06 5.94372 0 6.84377L0 72.2813C0 74.1005 0.722682 75.8452 2.00906 77.1316C3.29545 78.418 5.04016 79.1406 6.85938 79.1406H93.1406C94.0414 79.1406 94.9334 78.9632 95.7656 78.6185C96.5978 78.2738 97.354 77.7685 97.9909 77.1316C98.6279 76.4946 99.1331 75.7385 99.4779 74.9062C99.8226 74.074 100 73.1821 100 72.2813V17.2656C100 15.4464 99.2773 13.7017 97.9909 12.4153C96.7046 11.129 94.9598 10.4063 93.1406 10.4063Z" fill="#56B2E3"/>
<path d="M89.4687 17.25H10.5312C7.67187 17.25 5.34375 19.5781 5.34375 22.4375V74.75C5.34375 77.625 7.67187 79.9375 10.5312 79.9375H89.4687C92.3281 79.9375 94.6563 77.6094 94.6563 74.75V22.4531C94.6583 21.7706 94.5256 21.0943 94.2659 20.4632C94.0061 19.832 93.6243 19.2583 93.1424 18.7749C92.6605 18.2915 92.0879 17.908 91.4575 17.6464C90.8271 17.3847 90.1513 17.25 89.4687 17.25Z" fill="white"/>
<path d="M93.1406 25.6094H6.85938C3.0625 25.6094 0 28.6719 0 32.4687V80.5625C0 82.3817 0.722682 84.1264 2.00906 85.4128C3.29545 86.6992 5.04016 87.4219 6.85938 87.4219H93.1406C94.9598 87.4219 96.7046 86.6992 97.9909 85.4128C99.2773 84.1264 100 82.3817 100 80.5625V32.4687C100 28.6719 96.9375 25.6094 93.1406 25.6094Z" fill="#98CFEF"/>
</svg>
